<?xml version="1.0" encoding="UTF-8" standalone="no"?>
<svg
   xmlns:dc="http://purl.org/dc/elements/1.1/"
   xmlns:cc="http://creativecommons.org/ns#"
   xmlns:rdf="http://www.w3.org/1999/02/22-rdf-syntax-ns#"
   xmlns:svg="http://www.w3.org/2000/svg"
   xmlns="http://www.w3.org/2000/svg"
   xmlns:sodipodi="http://sodipodi.sourceforge.net/DTD/sodipodi-0.dtd"
   xmlns:inkscape="http://www.inkscape.org/namespaces/inkscape"
   width="8mm"
   height="8mm"
   viewBox="0 0 8 8"
   version="1.1"
   id="svg8"
   inkscape:version="1.0.1 (3bc2e813f5, 2020-09-07)"
   sodipodi:docname="EyeIcon.svg">
  <defs
     id="defs2">
    <inkscape:path-effect
       effect="bspline"
       id="path-effect851"
       is_visible="true"
       lpeversion="1"
       weight="33.333333"
       steps="2"
       helper_size="0"
       apply_no_weight="true"
       apply_with_weight="true"
       only_selected="false" />
    <inkscape:path-effect
       effect="bspline"
       id="path-effect847"
       is_visible="true"
       lpeversion="1"
       weight="33.333333"
       steps="2"
       helper_size="0"
       apply_no_weight="true"
       apply_with_weight="true"
       only_selected="false" />
  </defs>
  <sodipodi:namedview
     id="base"
     pagecolor="#222222"
     bordercolor="#666666"
     borderopacity="1.0"
     inkscape:pageopacity="0"
     inkscape:pageshadow="2"
     inkscape:zoom="11.027758"
     inkscape:cx="-0.1089652"
     inkscape:cy="9.5837501"
     inkscape:document-units="mm"
     inkscape:current-layer="layer1"
     inkscape:document-rotation="0"
     showgrid="true"
     inkscape:pagecheckerboard="true"
     lock-margins="true"
     fit-margin-top="1"
     fit-margin-left="1"
     fit-margin-right="1"
     fit-margin-bottom="1"
     inkscape:window-width="1920"
     inkscape:window-height="1057"
     inkscape:window-x="-8"
     inkscape:window-y="-8"
     inkscape:window-maximized="1"
     inkscape:snap-grids="false"
     inkscape:object-nodes="true"
     inkscape:object-paths="false"
     inkscape:snap-bbox="false"
     inkscape:bbox-paths="true"
     inkscape:bbox-nodes="true"
     inkscape:snap-intersection-paths="false">
    <inkscape:grid
       type="xygrid"
       id="grid835"
       spacingx="0.79999998"
       spacingy="0.79999998"
       units="mm" />
  </sodipodi:namedview>
  <metadata
     id="metadata5">
    <rdf:RDF>
      <cc:Work
         rdf:about="">
        <dc:format>image/svg+xml</dc:format>
        <dc:type
           rdf:resource="http://purl.org/dc/dcmitype/StillImage" />
        <dc:title />
      </cc:Work>
    </rdf:RDF>
  </metadata>
  <g
     inkscape:label="Layer 1"
     inkscape:groupmode="layer"
     id="layer1"
     transform="translate(-155.10417,-155.10417)">
    <path
       id="path849"
       style="fill:#ffffff;fill-opacity:1;stroke:none;stroke-width:0.240393px;stroke-linecap:butt;stroke-linejoin:miter;stroke-opacity:1"
       d="m 159.10443,156.70417 c -1.42608,-1.3e-4 -3.1627,1.7363 -3.16257,2.40035 1.2e-4,0.66406 1.7407,2.40394 3.16257,2.40381 1.42187,-1.2e-4 3.16195,-1.73989 3.16208,-2.40381 1.2e-4,-0.66391 -1.736,-2.40023 -3.16208,-2.40035 z m -0.006,0.72119 a 1.6788041,1.6788041 0 0 1 0.006,0 1.6788041,1.6788041 0 0 1 1.67916,1.67867 1.6788041,1.6788041 0 0 1 -1.67916,1.67916 1.6788041,1.6788041 0 0 1 -1.67867,-1.67916 1.6788041,1.6788041 0 0 1 1.67274,-1.67867 z m 0.006,0.69599 a 0.98282073,0.98282073 0 0 0 -0.98268,0.98268 0.98282073,0.98282073 0 0 0 0.98268,0.98317 0.98282073,0.98282073 0 0 0 0.98317,-0.98317 0.98282073,0.98282073 0 0 0 -0.98317,-0.98268 z" />
  </g>
</svg>
