<?xml version="1.0" encoding="UTF-8" standalone="no"?>
<svg
   xmlns:dc="http://purl.org/dc/elements/1.1/"
   xmlns:cc="http://creativecommons.org/ns#"
   xmlns:rdf="http://www.w3.org/1999/02/22-rdf-syntax-ns#"
   xmlns:svg="http://www.w3.org/2000/svg"
   xmlns="http://www.w3.org/2000/svg"
   xmlns:sodipodi="http://sodipodi.sourceforge.net/DTD/sodipodi-0.dtd"
   xmlns:inkscape="http://www.inkscape.org/namespaces/inkscape"
   width="21.275mm"
   height="21.275mm"
   viewBox="0 0 21.274999 21.274999"
   version="1.1"
   id="svg8"
   inkscape:version="1.0.2-2 (e86c870879, 2021-01-15)"
   sodipodi:docname="Icons.svg">
  <defs
     id="defs2" />
  <sodipodi:namedview
     id="base"
     pagecolor="#000000"
     bordercolor="#666666"
     borderopacity="1.0"
     inkscape:pageopacity="1"
     inkscape:pageshadow="2"
     inkscape:zoom="2.8284271"
     inkscape:cx="74.181875"
     inkscape:cy="67.221888"
     inkscape:document-units="mm"
     inkscape:current-layer="layer1"
     inkscape:document-rotation="0"
     showgrid="true"
     lock-margins="true"
     fit-margin-top="2.7"
     fit-margin-left="2.7"
     fit-margin-right="2.7"
     fit-margin-bottom="2.7"
     inkscape:window-width="1920"
     inkscape:window-height="1057"
     inkscape:window-x="-8"
     inkscape:window-y="-8"
     inkscape:window-maximized="1">
    <inkscape:grid
       type="xygrid"
       id="grid833"
       originx="10.6375"
       originy="10.6375" />
  </sodipodi:namedview>
  <metadata
     id="metadata5">
    <rdf:RDF>
      <cc:Work
         rdf:about="">
        <dc:format>image/svg+xml</dc:format>
        <dc:type
           rdf:resource="http://purl.org/dc/dcmitype/StillImage" />
        <dc:title></dc:title>
      </cc:Work>
    </rdf:RDF>
  </metadata>
  <g
     inkscape:label="Layer 1"
     inkscape:groupmode="layer"
     id="layer1"
     transform="translate(0.0541667,0.0541667)">
    <g
       id="g1029">
      <circle
         style="fill:#ffffff;stroke:none;stroke-width:0.499999;stroke-linecap:round;stroke-linejoin:round;stroke-opacity:1"
         id="path987"
         cx="10.583333"
         cy="10.583333"
         r="7.9375" />
      <g
         id="g1003"
         transform="translate(-0.09921876,-0.39687504)">
        <circle
           style="fill:#0fff00;fill-opacity:1;stroke:#000000;stroke-width:0.136568;stroke-linecap:round;stroke-linejoin:round;stroke-miterlimit:4;stroke-dasharray:none;stroke-opacity:1"
           id="circle995"
           cx="8.4219398"
           cy="10.973085"
           r="2.18081" />
        <ellipse
           style="fill:#ffffff;fill-opacity:1;stroke:#000000;stroke-width:0.136568;stroke-linecap:round;stroke-linejoin:round;stroke-miterlimit:4;stroke-dasharray:none;stroke-opacity:1"
           id="circle997"
           cx="8.4219398"
           cy="10.973085"
           rx="0.61228085"
           ry="1.0804957" />
        <path
           style="fill:#81c16a;fill-opacity:1;stroke:#000000;stroke-width:0.136568;stroke-linecap:butt;stroke-linejoin:miter;stroke-miterlimit:4;stroke-dasharray:none;stroke-opacity:1"
           d="m 4.1709453,12.435417 c 0,0 2.1942297,-2.255301 5.9400467,-2.5224872 0.669928,-0.047792 -1.1880128,-2.245823 -1.1880128,-2.245823 l -3.0107074,0.09763 -2.2946455,1.7576019 z"
           id="path868"
           sodipodi:nodetypes="cscccc" />
        <circle
           style="fill:none;fill-opacity:1;stroke:#000000;stroke-width:0.136546;stroke-linecap:round;stroke-linejoin:round;stroke-miterlimit:4;stroke-dasharray:none;stroke-opacity:1"
           id="circle1009"
           cx="7.3153038"
           cy="10.973085"
           r="2.989372" />
        <g
           id="g1034"
           transform="matrix(0.38115132,0,0,0.38115132,-84.269424,-2.4430746)">
          <circle
             style="opacity:1;fill:#0fff00;fill-opacity:1;stroke:#000000;stroke-width:0.358246;stroke-linecap:round;stroke-linejoin:round;stroke-miterlimit:4;stroke-dasharray:none;stroke-opacity:1"
             id="circle1030"
             cx="255.22844"
             cy="35.199036"
             r="5.7216382" />
          <ellipse
             style="opacity:1;fill:#ffffff;fill-opacity:1;stroke:#000000;stroke-width:0.358246;stroke-linecap:round;stroke-linejoin:round;stroke-miterlimit:4;stroke-dasharray:none;stroke-opacity:1"
             id="ellipse1032"
             cx="255.22844"
             cy="35.199036"
             rx="1.6063982"
             ry="2.8348207" />
        </g>
        <path
           style="fill:#81c16a;fill-opacity:1;stroke:#000000;stroke-width:0.136568;stroke-linecap:butt;stroke-linejoin:miter;stroke-miterlimit:4;stroke-dasharray:none;stroke-opacity:1"
           d="m 17.197917,12.435417 c 0,0 -2.194229,-2.255301 -5.940041,-2.5224872 -0.669932,-0.047792 1.188011,-2.245823 1.188011,-2.245823 l 3.010704,0.09763 2.294645,1.7576019 z"
           id="path886"
           sodipodi:nodetypes="cscccc" />
        <path
           id="circle1003"
           style="fill:#ffffff;fill-opacity:1;stroke:none;stroke-width:0.136546;stroke-linecap:round;stroke-linejoin:round;stroke-miterlimit:4;stroke-dasharray:none;stroke-opacity:1"
           d="m 7.3152701,6.8139946 c -2.2969775,-1.48e-5 -4.1590492,1.8620569 -4.1590306,4.1590344 -1.86e-5,2.296974 1.8620531,4.159046 4.1590306,4.159031 2.2969786,1.9e-5 3.5951839,-1.862053 3.5951689,-4.159031 1.5e-5,-2.2969775 -1.2981903,-4.159053 -3.5951689,-4.1590344 z m 0,1.1042168 c 1.6871223,1.49e-5 3.0548039,1.3676952 3.0548189,3.0548176 -1.8e-5,1.687123 -1.3676966,3.054799 -3.0548189,3.054814 -1.6871223,-1.8e-5 -3.054799,-1.367695 -3.0548138,-3.054814 1.48e-5,-1.6871224 1.3676915,-3.054799 3.0548138,-3.0548176 z"
           sodipodi:nodetypes="cccccccccc" />
        <path
           id="path1036"
           style="fill:#ffffff;fill-opacity:1;stroke:none;stroke-width:0.136546;stroke-linecap:round;stroke-linejoin:round;stroke-miterlimit:4;stroke-dasharray:none;stroke-opacity:1"
           d="m 14.052744,6.8139946 c -2.296977,-1.48e-5 -3.66998,1.8620569 -3.669961,4.1590344 -1.9e-5,2.296974 1.372984,4.159046 3.669961,4.159031 2.296978,1.9e-5 4.15905,-1.862053 4.159035,-4.159031 1.5e-5,-2.2969775 -1.862057,-4.159053 -4.159035,-4.1590344 z m 0,1.1042168 c 1.687119,1.49e-5 3.054799,1.3676952 3.054818,3.0548176 -1.9e-5,1.687123 -1.367699,3.054799 -3.054818,3.054814 -1.687122,-1.8e-5 -3.054798,-1.367695 -3.054813,-3.054814 1.5e-5,-1.6871224 1.367691,-3.054799 3.054813,-3.0548176 z"
           sodipodi:nodetypes="cccccccccc" />
        <circle
           style="fill:none;fill-opacity:1;stroke:#000000;stroke-width:0.136548;stroke-linecap:round;stroke-linejoin:round;stroke-miterlimit:4;stroke-dasharray:none;stroke-opacity:1"
           id="circle1038"
           cx="14.052775"
           cy="10.973085"
           r="2.989372" />
        <path
           style="fill:none;stroke:#000000;stroke-width:0.136548;stroke-linecap:round;stroke-linejoin:round;stroke-miterlimit:4;stroke-dasharray:none;stroke-opacity:1"
           d="m 10.479747,14.328548 0.197566,-0.164168 0.19898,0.166213"
           id="path1046"
           sodipodi:nodetypes="ccc" />
        <ellipse
           style="fill:#0fff00;fill-opacity:1;stroke:#000000;stroke-width:0.136548;stroke-linecap:round;stroke-linejoin:round;stroke-miterlimit:4;stroke-dasharray:none;stroke-opacity:1"
           id="path1048"
           cx="12.224364"
           cy="1.9927807"
           rx="0.67292124"
           ry="0.52077091"
           transform="rotate(30)" />
        <ellipse
           style="fill:#0fff00;fill-opacity:1;stroke:#000000;stroke-width:0.136548;stroke-linecap:round;stroke-linejoin:round;stroke-miterlimit:4;stroke-dasharray:none;stroke-opacity:1"
           id="ellipse1050"
           cx="-6.2400198"
           cy="12.653204"
           rx="0.67292124"
           ry="0.52077091"
           transform="matrix(-0.8660254,0.5,0.5,0.8660254,0,0)" />
      </g>
      <ellipse
         style="fill:#000000;stroke:none;stroke-width:0.217167;stroke-linecap:round;stroke-linejoin:round;stroke-opacity:1"
         id="path1010"
         cx="10.583333"
         cy="10.583333"
         rx="0.14197418"
         ry="0.093017563" />
    </g>
  </g>
</svg>
